<svg id="canvas" height="auto" xmlns="http://www.w3.org/2000/svg" version="1.1" xmlns:xlink="http://www.w3.org/1999/xlink" xmlns:svgjs="http://svgjs.dev/svgjs" viewBox="0 0 900 512" width="auto" style="width: auto; height: auto;"><rect width="900" height="512" fill="#000000ff"/><path d="M87.71814571091477 254.81800037250275C59.01527800102053 281.80155102300955 40.430451517746405 316.28583637643135 3.1438876085022684 328.94091129782464C-34.14267630074187 341.59598621921793 -94.90320494759561 343.0474638211166 -136.0012377445502 330.7484499008624C-177.0992705415048 318.4494359806082 -210.73462262436112 286.36091022424694 -243.44430917322538 255.14682777629923C-276.15399572208963 223.93274532835153 -314.56390891488786 191.70860110948854 -332.2593570377358 143.46395521317595C-349.95480516058376 95.21930931686336 -349.1601284000964 16.641854594119536 -349.61699791031293 -34.32104760157637C-350.07386742052944 -85.28394979727227 -352.57971975259824 -125.95636415092602 -335.0005740990349 -162.31345796099936C-317.4214284454716 -198.6705517710727 -273.450470571448 -222.1894949470123 -244.142123988933 -252.46361046201645C-214.833777406418 -282.7377259770206 -200.9926648044539 -329.1593690429237 -159.15049460394488 -343.9581510510243C-117.30832440343585 -358.7569330591249 -44.19711767533704 -341.779844169489 6.910897214121121 -341.2563025106201C58.01891210357928 -340.7327608517512 103.82019387366438 -356.9660411110034 147.49759473280426 -340.81690109781067C191.17499559194414 -324.66776108461795 232.77435556769785 -278.48132314805093 268.97530236896046 -244.36146243146362C305.17624917022306 -210.24160171487628 358.2962285197691 -172.91256763628627 364.70327554037976 -136.0977367982867C371.1103225609904 -99.28290596028711 317.55599808215345 -64.26735037578453 307.4175844926244 -23.4724774034662C297.2791709030954 17.32239556885213 325.8822091073315 76.91948690258158 303.8727940032054 108.67150103562324C281.8633788990793 140.4235151686649 211.38686858324934 142.6818575053037 175.36109386786757 167.03960739478362C139.3353191524858 191.39735728426353 116.421013420809 227.83444972199595 87.71814571091477 254.81800037250275C59.01527800102053 281.80155102300955 40.430451517746405 316.28583637643135 3.1438876085022684 328.94091129782464 " fill="url(#SvgjsLinearGradient1010)"/><defs><linearGradient gradientTransform="matrix(1,0,0,1,0,0)" id="SvgjsLinearGradient1010"><stop stop-color="#4ade80ff" offset="0"/><stop stop-color="#4aa8deff" offset="1"/></linearGradient><linearGradient gradientTransform="matrix(1,0,0,1,0,0)" id="SvgjsLinearGradient1011"><stop stop-color="#4ade80ff" offset="0"/><stop stop-color="#4aa8deff" offset="1"/></linearGradient></defs><path d="M1000.750468668261 901.5251103604043C969.6354999278623 927.5995061658243 945.923488393805 957.6903434278581 906.6137942520412 968.7253414436402C867.3041001102774 979.7603394594223 808.4102452212092 991.0868535369394 764.892303817678 967.7350984550969C721.3743624141467 944.3833433732544 679.2786571691971 868.7113038908948 645.5061458308538 828.6148109525852C611.7336344925104 788.5183180142757 577.8675024590033 768.8970934555743 562.257235787618 727.1561408252394C546.6469691162328 685.4151881949043 552.077716282747 623.5960393620185 551.8445458025424 578.1690951705752C551.6113753223378 532.742150979132 544.1932071570192 489.15433483576646 560.8582129063907 454.5944756765804C577.5232186557623 420.0346165173943 621.0908689812952 399.7373803330985 651.8345802987718 370.8099402154589C682.5782916162484 341.8825000978193 705.9434704010205 298.267413400711 745.3204808112507 281.02983497074257C784.697491221481 263.79225654077413 841.8614018780322 267.2171628550658 888.0966427601531 267.3844696356483C934.3318836422741 267.55177641623084 978.9443775097584 263.4092746275462 1022.7319261039764 282.03367565423775C1066.5194746981945 300.6580766809293 1113.5113818380346 345.6076317534229 1150.821934325461 379.1308757957976C1188.1324868128877 412.6541198381723 1232.3901343020834 443.55299561350785 1246.5952410285356 483.1731399084861C1260.8003477549878 522.7932842034643 1238.4934466448847 571.5090033912313 1236.0525746841745 616.851741565667C1233.6117027234643 662.1944797401027 1255.7415039292314 722.6583647808584 1231.9500092642745 755.2295689551006C1208.1585145993176 787.8007731293428 1131.8368634604358 787.8963763769029 1093.3036066944337 812.2789666111202C1054.7703499284312 836.6615568453374 1031.8654374086598 875.4507145549842 1000.750468668261 901.5251103604043C969.6354999278623 927.5995061658243 945.923488393805 957.6903434278581 906.6137942520412 968.7253414436402 " fill="url(#SvgjsLinearGradient1011)" transform="matrix(-1,1.2246467991473532e-16,-1.2246467991473532e-16,-1,1801.2930908203125,1248.4031372070312)"/></svg>